<svg width="28" height="28" viewBox="0 0 28 28" fill="none" xmlns="http://www.w3.org/2000/svg">
<g clip-path="url(#clip0_7_6920)">
<path fill-rule="evenodd" clip-rule="evenodd" d="M7.30158 12.1886H0.501842V14.5508C0.501842 15.1348 0.97848 15.6118 1.56205 15.6118H4.00791L5.46686 16.3488L7.30164 15.6118V12.1886H7.30158Z" fill="#FFEF60"/>
<path fill-rule="evenodd" clip-rule="evenodd" d="M6.24143 8.76086H1.5621C0.978533 8.76086 0.501895 9.23787 0.501895 9.82191V11.5771H7.30164V9.82191C7.30164 9.23787 6.825 8.76086 6.24143 8.76086Z" fill="#FFEF60"/>
<path fill-rule="evenodd" clip-rule="evenodd" d="M7.30164 11.0481H0.501895V12.7161H7.30164V11.0481Z" fill="#FF814E"/>
<path fill-rule="evenodd" clip-rule="evenodd" d="M1.92351 11.048H1.05273H0.504264V9.82184C0.504264 9.42278 0.727334 9.07421 1.05273 8.89378C1.20549 8.80971 1.37964 8.76074 1.56452 8.76074H2.98376C2.4002 8.76074 1.92356 9.23775 1.92356 9.82179V11.048H1.92351Z" fill="#FFCD1B"/>
<path fill-rule="evenodd" clip-rule="evenodd" d="M1.91846 12.7161H1.04768H0.499216V12.1887V11.5771V11.0481H1.04768H1.91846V11.5771V12.1887V12.7161Z" fill="#FF5A17"/>
<path fill-rule="evenodd" clip-rule="evenodd" d="M1.92357 12.7161V14.5508C1.92357 15.1348 2.4002 15.6118 2.98376 15.6118H1.56454C1.37971 15.6118 1.20556 15.5644 1.05275 15.4804C0.727356 15.2984 0.50429 14.9499 0.50429 14.5508V12.7161H1.05275H1.92357Z" fill="#FFCD1B"/>
<path fill-rule="evenodd" clip-rule="evenodd" d="M7.30118 15.612H4.00746V17.1271C4.00746 17.491 4.30534 17.7876 4.6674 17.7876H15.3914C15.3914 16.8351 15.3914 16.3504 14.6627 16.3504L13.2114 16.3489C12.2978 16.3474 11.6989 16.1134 11.3644 15.6119H7.30118V15.612Z" fill="#635448"/>
<path fill-rule="evenodd" clip-rule="evenodd" d="M14.0969 17.7876H4.66645C4.11343 18.7508 3.66886 19.9082 4.05233 22.1221C4.69396 19.9388 11.2111 20.8103 11.8802 23.3299H19.071C19.343 22.7137 19.5996 22.1052 19.8242 21.4906H17.797C13.6967 19.9433 15.015 20.6329 14.0969 17.7876Z" fill="#FF8C5E"/>
<path fill-rule="evenodd" clip-rule="evenodd" d="M14.6776 11.8691C14.5371 12.6091 14.3461 13.3385 14.1323 13.9592L12.0593 14.7714L9.74782 13.9592C9.8288 9.58494 11.4634 7.48728 12.8536 6.80844C13.3547 6.42691 13.868 6.2832 13.868 6.2832C13.868 6.2832 14.5432 7.36345 14.5784 7.36345C14.8381 7.98113 14.9359 8.78688 14.9191 9.65682L14.6776 11.8691Z" fill="#FFFAFA"/>
<path fill-rule="evenodd" clip-rule="evenodd" d="M9.74796 13.9591H14.1324C15.1423 14.0692 16.3843 14.8383 16.3843 17.2203V19.717L15.3893 20.3097L14.0958 19.717V17.7875C14.0958 16.835 14.0958 16.3503 13.3671 16.3503L11.9158 16.3488C11.0023 16.3473 10.4034 16.1133 10.0689 15.6118C9.81064 15.2251 9.71134 14.6792 9.74796 13.9591Z" fill="#FF8086"/>
<path fill-rule="evenodd" clip-rule="evenodd" d="M9.74823 13.9592C9.82921 9.58496 11.4638 7.4873 12.854 6.80847C13.0603 6.9537 13.2895 7.07297 13.5415 7.16165C12.3102 8.09274 11.0758 10.1736 11.0056 13.9592H9.74823Z" fill="#FFC8C8"/>
<path fill-rule="evenodd" clip-rule="evenodd" d="M9.74895 13.9591H11.0062C10.9695 14.6792 11.0688 15.2251 11.327 15.6119C11.5378 15.9284 11.8556 16.1959 12.291 16.3488H11.9167C11.0031 16.3473 10.4043 16.1134 10.0697 15.6119C9.81162 15.2251 9.71233 14.6792 9.74895 13.9591Z" fill="#F76672"/>
<path fill-rule="evenodd" clip-rule="evenodd" d="M11.8771 23.3299C11.8771 21.0687 10.0851 19.2676 7.87454 19.2676C6.07644 19.2676 4.55487 20.4601 4.04919 22.1221C3.9453 22.463 3.88419 22.8254 3.87352 23.2015C3.86892 23.3483 3.96978 23.3299 4.10726 23.3299C6.69668 23.3299 9.28766 23.3284 11.8771 23.3299Z" fill="#FF8C5D"/>
<path fill-rule="evenodd" clip-rule="evenodd" d="M10.8745 23.3298H4.78206C4.86911 24.9719 6.19973 26.2776 7.82829 26.2776C9.45684 26.2776 10.7875 24.9719 10.8745 23.3298Z" fill="#2A333E"/>
<path fill-rule="evenodd" clip-rule="evenodd" d="M26.3452 22.6801L21.1037 23.8864C21.4367 25.3343 22.8804 26.2394 24.3271 25.9061C25.7753 25.5728 26.6782 24.128 26.3452 22.6801Z" fill="#2A333E"/>
<path fill-rule="evenodd" clip-rule="evenodd" d="M26.7374 21.2108C25.9965 20.1329 24.7102 19.5076 23.3658 19.6421C20.9948 20.1436 20.2233 21.5609 20.069 23.3284C20.0721 23.5684 20.0981 23.81 20.15 24.0515C20.1653 24.1188 20.2096 24.0913 20.283 24.0745L21.1034 23.8864L26.3449 22.6801L26.7375 22.5899L27.2859 22.463C27.1805 22.0012 26.991 21.5793 26.7374 21.2108Z" fill="#FFFAFA"/>
<path fill-rule="evenodd" clip-rule="evenodd" d="M23.3672 19.6359L21.2498 12.3094L20.2965 11.8828L19.2302 12.3094C20.6311 16.1929 20.24 18.9036 19.2943 21.4905C19.0682 22.1052 18.8116 22.7137 18.5412 23.3298H20.0643L23.3672 19.6359Z" fill="#FF814E"/>
<path fill-rule="evenodd" clip-rule="evenodd" d="M16.8142 4.09456L14.3301 3.56555C14.0781 3.58847 13.357 4.19395 13.357 4.57313L13.8855 7.26094C14.1055 7.3267 14.3393 7.36337 14.5806 7.36337C15.9036 7.36337 16.9761 6.28857 16.9761 4.96449C16.9761 4.6572 16.9196 4.36361 16.8142 4.09456Z" fill="#FFECE4"/>
<path fill-rule="evenodd" clip-rule="evenodd" d="M17.6125 4.09458C17.6125 2.38525 16.259 1.00159 14.5877 1.00159C12.9164 1.00159 11.5629 2.38525 11.5629 4.09458C11.5629 5.2229 12.0212 6.22588 12.8523 6.8084C13.1486 7.01787 13.4939 7.1723 13.8819 7.26097V4.5731C13.8819 4.19393 14.0744 4.11749 14.3265 4.09453H16.8105H17.6125V4.09458Z" fill="#FF8C5D"/>
<path fill-rule="evenodd" clip-rule="evenodd" d="M16.1726 1.45871C15.7128 1.16821 15.1704 1.00159 14.5899 1.00159C12.9186 1.00159 11.5651 2.38525 11.5651 4.09458C11.5651 5.2229 12.0234 6.22588 12.8545 6.8084C13.0653 6.95671 13.2991 7.0775 13.5557 7.16618C12.9416 6.5439 12.6086 5.65104 12.6086 4.66638C12.6086 2.88062 14.0247 1.43271 15.7709 1.43271C15.9068 1.43271 16.0412 1.44035 16.1726 1.45871Z" fill="#FF5A17"/>
<path fill-rule="evenodd" clip-rule="evenodd" d="M16.387 19.717H14.0984V21.1588C14.0984 21.4677 14.2665 21.4906 14.514 21.4906H17.7985C17.8643 20.0442 16.9889 19.717 16.387 19.717Z" fill="#635448"/>
<path fill-rule="evenodd" clip-rule="evenodd" d="M19.2984 21.4906C20.244 18.9037 20.6351 16.1929 19.2342 12.3094H20.0195C20.0225 12.3094 20.0256 12.3094 20.0286 12.3094H20.3112C21.7121 16.1929 21.3226 18.9036 20.3754 21.4906C20.1508 22.1052 19.8942 22.7137 19.6223 23.3299H19.0723H18.5452C18.8156 22.7137 19.0723 22.1052 19.2984 21.4906Z" fill="#FF5A17"/>
<path fill-rule="evenodd" clip-rule="evenodd" d="M20.0704 23.3284L23.3671 19.6421C23.7078 19.6085 24.0455 19.6222 24.3708 19.6819L21.2024 23.2244C21.2055 23.4307 21.2253 23.6402 21.265 23.8497L21.1046 23.8863L20.2842 24.0744C20.2109 24.0912 20.1666 24.1188 20.1513 24.0515C20.0994 23.81 20.0735 23.5684 20.0704 23.3284Z" fill="#FFC8C8"/>
<path fill-rule="evenodd" clip-rule="evenodd" d="M4.66675 17.7876H14.0972V18.6178H6.34871C5.7178 18.6178 5.41835 18.8899 5.17237 19.4419C4.96002 19.9205 4.95542 20.0764 4.85921 20.6543C4.49714 21.0748 4.21909 21.5732 4.05258 22.1221C3.66916 19.9082 4.11373 18.7508 4.66675 17.7876Z" fill="#FF5A17"/>
<path fill-rule="evenodd" clip-rule="evenodd" d="M4.85837 20.6542C5.59166 19.8025 6.67175 19.2675 7.87708 19.2675C8.17956 19.2675 8.47289 19.3011 8.75549 19.3638C6.95127 19.772 5.68939 21.3651 5.63441 23.2014C5.63137 23.3023 5.6772 23.3252 5.75049 23.3298H4.78042H4.10975C3.97227 23.3298 3.87141 23.3482 3.87601 23.2014C3.88668 22.8253 3.94779 22.4629 4.05168 22.1219C4.05472 22.1112 4.0578 22.1021 4.06084 22.0929C4.06084 22.0929 4.06084 22.0929 4.06084 22.0914C4.22892 21.5547 4.50237 21.067 4.85837 20.6542Z" fill="#FF5A17"/>
<path fill-rule="evenodd" clip-rule="evenodd" d="M21.2648 23.8496L26.3459 22.6801C26.4024 22.9201 26.4223 23.1617 26.4131 23.3971L22.3801 24.3252L22.2212 24.3619C22.3709 25.0193 22.7513 25.5651 23.257 25.9336C22.2258 25.7516 21.3534 24.9719 21.1044 23.8864L21.2648 23.8496Z" fill="#635448"/>
<path fill-rule="evenodd" clip-rule="evenodd" d="M5.75104 23.3299H10.8734C10.8566 23.6509 10.7909 23.9598 10.6855 24.2487H7.11681H6.14674C6.18493 24.9673 6.4599 25.6202 6.89379 26.1293C5.71593 25.7425 4.84976 24.6432 4.78102 23.3298H5.75104V23.3299Z" fill="#635448"/>
<path fill-rule="evenodd" clip-rule="evenodd" d="M4.00647 17.1271V15.6119H6.0765V17.1271C6.0765 17.491 6.37438 17.7875 6.73645 17.7875H4.66642C4.30435 17.7876 4.00647 17.491 4.00647 17.1271Z" fill="#2A333E"/>
<path fill-rule="evenodd" clip-rule="evenodd" d="M16.9612 4.70761H14.9202C14.6681 4.73052 14.4756 4.80852 14.4756 5.1877V7.36027C14.2709 7.35112 14.0723 7.31748 13.8829 7.26087V4.57306C13.8829 4.19388 14.0753 4.11745 14.3274 4.09448H16.8115C16.8863 4.28716 16.9383 4.49354 16.9612 4.70761Z" fill="#FFDDCE"/>
<path fill-rule="evenodd" clip-rule="evenodd" d="M21.6954 10.0023L18.8371 10.9472C18.6966 11.0725 18.8554 12.3507 18.9502 12.3094H21.254H22.2729V10.2057C22.2729 9.79132 22.0575 9.88303 21.6954 10.0023Z" fill="#FFE07D"/>
<path fill-rule="evenodd" clip-rule="evenodd" d="M17.5071 12.3095H17.747H18.9523C19.7284 12.3095 19.7513 11.0222 18.8393 10.9472L17.5071 10.8402L17.1497 11.597L17.5071 12.3095Z" fill="#FFECE4"/>
<path fill-rule="evenodd" clip-rule="evenodd" d="M14.9206 9.6568L14.4424 9.24551C13.2447 8.2135 11.7307 9.95494 13.3318 10.9946L14.6792 11.8691L15.3575 12.3095H17.5039V10.8402L16.1703 10.7316L14.9206 9.6568Z" fill="#FF8086"/>
<path fill-rule="evenodd" clip-rule="evenodd" d="M17.5067 12.3094V11.597H17.7924H17.9467H18.1881H19.3934C19.4392 11.597 19.482 11.5939 19.5233 11.5847C19.5676 11.9394 19.3674 12.3094 18.9519 12.3094H17.7465H17.5067Z" fill="#FFDDCE"/>
<path fill-rule="evenodd" clip-rule="evenodd" d="M13.3318 10.9945C12.3632 10.3646 12.5343 9.47938 13.0858 9.10632C13.0415 9.48853 13.2233 9.92735 13.7732 10.2836L14.8228 10.964L15.1191 11.1582L15.7975 11.597H17.5039V12.3094H15.3575L14.6792 11.8691L13.3318 10.9945Z" fill="#F76672"/>
<path fill-rule="evenodd" clip-rule="evenodd" d="M18.837 10.9472L19.9874 10.568C20.3723 10.9808 20.5587 11.785 20.3112 12.3094H19.2342H18.9501C19.3656 12.3094 19.5657 11.9394 19.5215 11.5847C19.4817 11.2774 19.2602 10.9823 18.837 10.9472Z" fill="#FFC269"/>
</g>
<defs>
<clipPath id="clip0_7_6920">
<rect width="26.7851" height="26.7851" fill="white" transform="matrix(-1 0 0 1 27.2849 0.24707)"/>
</clipPath>
</defs>
</svg>
